<mxfile host="app.diagrams.net" modified="2021-07-16T18:46:14.451Z" agent="5.0 (Windows NT 10.0; Win64; x64) AppleWebKit/537.36 (KHTML, like Gecko) Chrome/91.0.4472.164 Safari/537.36" etag="n8MAJVvHOEuLjyywloux" version="14.9.0" type="github">
  <diagram id="sxnoHKomHlHQyiGVfuQo" name="Page-1">
    <mxGraphModel dx="202" dy="112" grid="1" gridSize="10" guides="1" tooltips="1" connect="1" arrows="1" fold="1" page="1" pageScale="1" pageWidth="827" pageHeight="1169" math="0" shadow="0">
      <root>
        <mxCell id="0" />
        <mxCell id="1" parent="0" />
        <mxCell id="C1_oEOl42hNvULunaMIh-1" value="" style="rounded=0;whiteSpace=wrap;html=1;fillColor=#dae8fc;strokeColor=#6c8ebf;" vertex="1" parent="1">
          <mxGeometry x="350" y="210" width="120" height="70" as="geometry" />
        </mxCell>
        <mxCell id="C1_oEOl42hNvULunaMIh-2" value="1" style="text;html=1;strokeColor=none;fillColor=none;align=center;verticalAlign=middle;whiteSpace=wrap;rounded=0;" vertex="1" parent="1">
          <mxGeometry x="330" y="240" width="20" height="10" as="geometry" />
        </mxCell>
        <mxCell id="C1_oEOl42hNvULunaMIh-3" value="2" style="text;html=1;strokeColor=none;fillColor=none;align=center;verticalAlign=middle;whiteSpace=wrap;rounded=0;" vertex="1" parent="1">
          <mxGeometry x="320" y="280" width="40" height="20" as="geometry" />
        </mxCell>
        <mxCell id="C1_oEOl42hNvULunaMIh-4" value="3" style="text;html=1;strokeColor=none;fillColor=none;align=center;verticalAlign=middle;whiteSpace=wrap;rounded=0;" vertex="1" parent="1">
          <mxGeometry x="390" y="280" width="40" height="20" as="geometry" />
        </mxCell>
        <mxCell id="C1_oEOl42hNvULunaMIh-5" value="4" style="text;html=1;strokeColor=none;fillColor=none;align=center;verticalAlign=middle;whiteSpace=wrap;rounded=0;" vertex="1" parent="1">
          <mxGeometry x="460" y="280" width="40" height="20" as="geometry" />
        </mxCell>
        <mxCell id="C1_oEOl42hNvULunaMIh-6" value="5" style="text;html=1;strokeColor=none;fillColor=none;align=center;verticalAlign=middle;whiteSpace=wrap;rounded=0;" vertex="1" parent="1">
          <mxGeometry x="460" y="235" width="40" height="20" as="geometry" />
        </mxCell>
        <mxCell id="C1_oEOl42hNvULunaMIh-7" value="" style="shape=crossbar;whiteSpace=wrap;html=1;rounded=1;" vertex="1" parent="1">
          <mxGeometry x="350" y="190" width="120" height="10" as="geometry" />
        </mxCell>
        <mxCell id="C1_oEOl42hNvULunaMIh-8" value="50 m" style="text;html=1;strokeColor=none;fillColor=none;align=center;verticalAlign=middle;whiteSpace=wrap;rounded=0;" vertex="1" parent="1">
          <mxGeometry x="390" y="170" width="40" height="20" as="geometry" />
        </mxCell>
        <mxCell id="C1_oEOl42hNvULunaMIh-9" value="" style="shape=crossbar;whiteSpace=wrap;html=1;rounded=1;direction=south;" vertex="1" parent="1">
          <mxGeometry x="330" y="210" width="10" height="70" as="geometry" />
        </mxCell>
        <mxCell id="C1_oEOl42hNvULunaMIh-10" value="21 m" style="text;html=1;strokeColor=none;fillColor=none;align=center;verticalAlign=middle;whiteSpace=wrap;rounded=0;rotation=-90;" vertex="1" parent="1">
          <mxGeometry x="300" y="235" width="40" height="20" as="geometry" />
        </mxCell>
      </root>
    </mxGraphModel>
  </diagram>
</mxfile>
